<?xml version="1.0" encoding="UTF-8"?>
<svg
  xmlns="http://www.w3.org/2000/svg"
  version="1.2" baseProfile="tiny"
  width="500" height="500"
  font-family="Liberation Seris, serif" font-size="150px" font-weight="900" font-style = "italic"
>

  <defs>
    <filter id="textshadow" x="-20%" y="-20%" width="140%" height="140%">
      <feGaussianBlur stdDeviation="2 2" result="shadow"/>
      <feOffset dx="6" dy="6"/>
    </filter>
    <clipPath id="circle">
      <circle cx="250" cy="250" r="225"/>
    </clipPath>
    <radialGradient id="gradient" cx="50%" cy="50%" fx="50%" fy="50%" r="70%">
      <stop offset="0%" stop-color="#4575b4"/>
      <stop offset="100%" stop-color="#e0f3f8"/>
    </radialGradient>
  </defs>

  <rect x="3" y="3" rx="25" ry="25" width="494" height="494" fill="#ffffff"/>
  <rect x="3" y="3" rx="25" ry="25" width="494" height="494" fill="url(#gradient)"/>

  <circle cx="250" cy="250" r="225" stroke="#000000" stroke-width="3" fill="#4575b4"/>

  <g fill="#000000" clip-path="url(#circle)">
    <g transform="scale(1.3,1.3)">
      <g transform="translate(230,-130)">
        <path transform="rotate(-60,180.63277,451.29944)" d="m 180.63277,451.29944 c -0.30952,-0.30952 0.54649,-2.45555 1.90224,-4.76896 2.79229,-4.76468 3.13759,-9.32914 1.0161,-13.43164 C 182.02763,430.15274 177.99117,427 175.74276,427 c -0.73018,0 -6.70851,4.32053 -13.28518,9.60118 -12.0091,9.64254 -15.96426,12.22548 -17.05311,11.13662 -1.55343,-1.55342 1.62765,-4.97685 12.30065,-13.2378 19.45351,-15.05711 45.13229,-41.54976 50.68935,-52.29593 1.8788,-3.6332 3.58793,-13.81279 3.59798,-21.4296 0.006,-4.85204 -0.67837,-7.03683 -4.48847,-14.32079 -4.77758,-9.13352 -11.00133,-17.74892 -16.90365,-23.39933 l -3.59926,-3.44565 -2.75054,2.16017 c -7.60451,5.97231 -23.22283,15.65904 -35.75053,22.17305 -19.09111,9.92678 -28.5,15.29913 -28.5,16.27312 0,0.44941 12.22255,0.69737 27.16122,0.55103 l 27.16122,-0.26607 1.178,-3.5 c 1.74609,-5.18786 4.03782,-4.59134 3.84181,1 -0.21422,6.11073 -6.03212,19.46125 -11.61429,26.65169 -10.58282,13.63183 -27.15404,25.47821 -44.22796,31.61755 -10.4856,3.77035 -26.942148,11.24708 -33.430384,15.18847 -3.159629,1.91937 -8.042556,5.75159 -10.850948,8.51603 C 76.410275,442.73818 73.637188,445 73.05625,445 68.830835,445 77.416086,435.06398 87.327895,428.48291 90.447553,426.41157 93,424.33055 93,423.85842 c 0,-0.47213 -6.4125,-0.83987 -14.25,-0.8172 -12.624086,0.0365 -14.763446,0.29324 -18.75,2.25 -3.759911,1.84551 -5.014332,3.25362 -7.627319,8.56179 -3.177463,6.45487 -5.123889,6.89875 -3.826339,0.87259 1.022479,-4.74866 3.235702,-8.61529 6.935774,-12.11718 2.779586,-2.63071 3.378432,-4.03051 3.896683,-9.10842 0.796822,-7.80741 7.380213,-21.10697 13.563449,-27.40046 9.574671,-9.7454 40.644722,-29.32874 75.557752,-47.62378 25.75116,-13.49406 42.8463,-26.90736 51.80511,-40.64768 2.03398,-3.11956 5.33277,-10.54456 7.33064,-16.5 2.92576,-8.7214 3.64367,-12.38454 3.68995,-18.82808 0.11341,-15.79182 -4.83417,-25.9013 -20.56011,-42.01086 -9.76969,-10.00801 -12.66024,-11.42303 -14.87623,-7.28241 -0.99711,1.86312 -0.8878,2.36917 0.70204,3.25 1.03567,0.5738 3.51793,2.61947 5.51614,4.54594 3.96843,3.82597 5.60631,9.4707 4.37487,15.07742 -0.78933,3.59379 -7.63768,10.91252 -10.23241,10.93522 -3.89747,0.0341 -4.41568,1.39941 -2.30064,6.06143 2.47959,5.46558 2.66181,13.84013 0.3965,18.22292 -2.4611,4.7616 -8.6163,12.72168 -12.98785,16.79627 -5.33385,4.97151 -19.61635,14.46854 -32.85801,21.84864 -7.35931,4.10164 -22.58809,13.36543 -28,17.03263 -4.02505,2.72744 -7.628271,4.77798 -26,14.79623 -5.5,2.9992 -13.15,7.81634 -17,10.70476 C 47.290137,360.13803 32.741447,374.73486 29.57059,380.5 23.69231,391.18769 22.216669,410.63093 25.91572,428.65708 28.191218,439.74601 28.464989,443 27.122445,443 c -1.81608,0 -3.135102,-2.90057 -5.036293,-11.07497 -2.969404,-12.76731 -3.35139,-18.33241 -2.145747,-31.26109 1.817015,-19.48469 7.509587,-29.40366 25.09776,-43.73138 10.064134,-8.19847 11.891351,-9.92769 21.590423,-20.43256 4.460767,-4.83137 4.571613,-5.10118 3.286549,-8 -1.232209,-2.77959 -1.652016,-12.66112 -0.785954,-18.5 0.349784,-2.3582 0.05885,-2.53011 -5.129183,-3.03086 -6.690249,-0.64575 -9.082661,-1.899 -12.709352,-6.65771 -3.739511,-4.90674 -3.859578,-12.78432 -0.291288,-19.11136 l 2.425052,-4.29994 -4.962206,-4.18825 c -15.665935,-13.22252 -21.635679,-21.2912 -26.059507,-35.22192 -2.68162,-8.44448 -3.187392,-19.62957 -1.29735,-28.69074 1.831889,-8.78237 8.271522,-21.25904 15.35725,-29.75438 C 40.05817,174.73398 43,170.88595 43,170.49366 c 0,-0.39228 -2.158513,-3.075 -4.796696,-5.96159 C 24.787645,149.8532 19,135.93647 19,118.35659 19,107.79125 20.817354,100.99526 26.587193,89.984321 31.411679,80.777457 46.35974,66.216999 58.1177,59.271401 60.170054,58.059046 61,56.785776 61,54.849492 61,50.596183 62.802702,46.825609 66.806087,42.705348 L 70.493099,38.910695 68.24655,35.00723 C 64.347758,28.232931 65.71041,19.298636 71.450556,14 L 74.158869,11.5 110.764,11.213837 c 20.13283,-0.15739 37.27233,-0.03014 38.08779,0.282782 1.16487,0.447004 1.22174,0.829831 0.26534,1.786164 C 148.20665,14.193193 138.98311,14.5 112.52388,14.5 c -34.31971,0 -35.460254,0.06242 -38.199909,2.09059 -3.38729,2.507616 -5.90283,8.966917 -4.958071,12.731135 0.371842,1.481536 1.979718,4.15273 3.573059,5.935988 C 75.795505,38.454743 75.96031,38.5 84.74598,38.5 h 8.910037 l 5.921992,-4.389385 c 3.257091,-2.414162 7.801121,-6.18761 10.097851,-8.385441 2.67991,-2.564528 4.73976,-3.779661 5.75,-3.391999 2.55966,0.982236 1.90424,2.130793 -4.73761,8.302169 C 104.50133,36.384007 101.81424,38.194836 77.5,53.000859 54.55094,66.975563 49.502091,70.546396 41.446415,78.5 35.31519,84.553537 32.454009,88.324809 29.686906,94 c -4.431754,9.08931 -6.6921,17.54588 -6.671553,24.9601 0.02056,7.41849 3.277566,19.93818 6.994222,26.88526 C 33.20928,151.82617 45.532756,167 47.19039,167 48.191152,167 60,158.0447 60,157.28576 c 0,-0.23056 -1.165561,-1.94733 -2.590135,-3.81505 -4.580751,-6.00567 -4.214473,-14.63493 0.897066,-21.13422 1.839215,-2.33855 2.195805,-4.08315 2.210027,-10.81248 C 60.543637,108.90053 64.732465,101.87446 79,90.521786 95.525124,77.372744 128.16754,57.700322 157.35814,43.298118 c 11.80968,-5.826713 19.55151,-11.203617 26.44162,-18.364378 3.13513,-3.258289 6.17446,-5.926317 6.75407,-5.928951 2.41389,-0.01097 13.45612,14.279428 18.92753,24.495211 10.74499,20.062211 11.79405,36.006232 3.50966,53.341036 -4.94244,10.341904 -13.79481,22.648884 -22.33539,31.051744 -5.78084,5.68761 -6.39597,6.65998 -5.57659,8.8151 1.36036,3.57802 1.11891,10.8826 -0.48675,14.72547 C 182.82115,155.6723 176.59509,160 172.26787,160 170.47054,160 169,160.30792 169,160.68428 c 0,0.37635 0.95344,2.65383 2.11877,5.06106 2.78468,5.75239 2.28635,13.40982 -1.18363,18.18804 -1.83912,2.53248 -2.10547,3.46882 -1.08824,3.82555 3.54575,1.24344 8.21889,6.72352 9.5469,11.19542 1.16611,3.92672 3.33842,6.684 12.33438,15.65588 13.44638,13.41039 18.41824,19.96937 21.9378,28.9408 2.36264,6.02241 2.73333,8.41568 2.78008,17.94897 0.0483,9.85232 -0.29337,12.05612 -3.27484,21.12245 -3.38371,10.28949 -9.22265,20.43123 -16.81534,29.20679 -2.63216,3.04222 -3.46479,4.71037 -2.80078,5.61131 0.51969,0.70515 3.10106,3.93199 5.73636,7.17077 5.44897,6.69675 15.11439,22.38586 16.83926,27.33381 1.80545,5.17914 0.53244,24.76727 -1.97852,30.44369 -3.22856,7.29871 -10.23609,16.38209 -22.1033,28.65102 -6.07689,6.2826 -11.0489,11.88555 -11.0489,12.45099 0,0.56544 0.88943,1.58354 1.97652,2.26243 3.61515,2.2577 6.28873,9.03461 5.81552,14.74097 -0.52055,6.27705 -4.97081,12.99367 -7.15927,10.80521 z m -65.43089,-36.15389 c 5.33603,-2.22023 12.08603,-5.20953 15,-6.6429 6.89007,-3.3892 19.08228,-11.64775 19.58232,-13.26434 0.3105,-1.00385 -7.64857,-1.20821 -38.94697,-1 L 71.5,394.5 l -3.367866,6.7059 c -3.874653,7.71497 -5.110617,14.73714 -2.914645,16.55964 1.22976,1.02061 33.260933,2.35657 38.782511,1.61755 0.825,-0.11042 5.86584,-2.01731 11.20188,-4.23754 z m 42.06547,-26.06417 c 5.0429,-2.7963 15.54298,-19.52731 14.29538,-22.77851 C 171.1671,365.27189 164.71425,365 140.64083,365 h -30.42195 l -9.35944,6.1392 c -13.858845,9.09053 -24.096431,17.02381 -23.167416,17.95282 1.933193,1.9332 76.087666,1.92328 79.575326,-0.0106 z M 71.526461,337.19313 c -0.307887,-0.30789 -1.114794,-6.4e-4 -1.793128,0.68278 -0.980267,0.98762 -0.865403,1.10248 0.559795,0.5598 0.986221,-0.37553 1.541221,-0.93469 1.233333,-1.24258 z M 95.530546,324.54025 C 114.1222,313.26909 119,310.03288 119,308.96927 119,308.37376 110.74377,308 97.588894,308 H 76.177787 l -2.588893,3.07673 c -3.398279,4.03862 -3.525827,10.23719 -0.308879,15.01082 2.251233,3.3406 5.930811,5.86902 8.582864,5.89771 0.749584,0.008 6.900034,-3.34215 13.667667,-7.44501 z m 37.726944,-22.8067 c 19.84457,-11.79612 31.19774,-20.58299 29.22483,-22.61879 -0.68195,-0.70369 -17.7773,-1.08343 -51.82073,-1.1511 -56.163894,-0.11164 -53.59956,-0.39341 -57.705593,6.34067 -3.69633,6.06216 -1.446794,13.59673 5.284863,17.70107 3.084565,1.88068 5.080344,1.98644 37.25914,1.97441 33.38556,-0.0125 34.06791,-0.0531 37.75749,-2.24626 z m 33.35818,-27.49886 C 168.28076,273.13819 172,265.38315 172,263.00772 c 0,-2.95425 -2.72793,-9.08922 -5.22204,-11.74407 L 164.65137,249 h -48.92455 c -55.004153,0 -54.098955,-0.1112 -57.7767,7.09777 -2.373402,4.65225 -2.402728,5.73058 -0.298851,10.98868 3.276593,8.18902 1.214519,7.90761 57.848731,7.8945 27.5,-0.006 50.50205,-0.34218 51.11567,-0.74626 z M 54.894017,269.80197 c -1.651371,-3.08562 -1.555518,-11.79463 0.164333,-14.93104 0.792907,-1.44599 2.989557,-3.92099 4.881443,-5.5 L 63.379585,246.5 116.93979,245.92961 c 55.88705,-0.59518 58.14112,-0.77809 62.73157,-5.0906 5.61997,-5.27968 4.81622,-15.32384 -1.56058,-19.50208 -2.32606,-1.52409 -7.50866,-1.6551 -57.08455,-1.44301 -45.371064,0.1941 -54.767895,0.47025 -55.965538,1.6447 -0.995701,0.97641 -1.458013,3.80774 -1.5,9.1864 -0.04842,6.20308 -0.362707,7.77498 -1.554527,7.77498 -2.565441,0 -3.462371,-10.65181 -1.541009,-18.30079 C 64.871797,202.65629 72.86005,195.07097 106.5,176.4864 c 7.7,-4.25391 17.25484,-9.70358 21.23298,-12.11039 C 131.71112,161.9692 135.27004,160 135.6417,160 c 0.37166,0 4.76682,-2.61686 9.76702,-5.81524 5.0002,-3.19839 14.71346,-9.38589 21.58502,-13.75 20.14118,-12.79165 34.55523,-28.87831 42.78387,-47.748555 4.46077,-10.229602 5.43994,-20.986158 2.75205,-30.232183 -2.95615,-10.168779 -11.64305,-25.957821 -18.70988,-34.0065 l -3.11781,-3.550992 -3.10099,2.891236 c -1.70554,1.59018 -5.80098,5.04915 -9.10098,7.6866 -3.90402,3.120198 -6.00501,5.534246 -6.01435,6.9105 -0.0122,1.79716 -0.69767,2.159786 -4.55967,2.412152 -4.82797,0.315488 -10.63305,2.970312 -31.92598,14.600639 -12.82106,7.002942 -16.4553,9.480151 -15.4231,10.512879 0.71915,0.719525 50.2376,1.170556 52.62262,0.479304 1.26292,-0.366031 1.77672,-1.828106 2,-5.691207 C 175.42036,60.877838 175.89756,59.5 177,59.5 c 1.12678,0 1.57511,1.447015 1.80186,5.815684 0.59657,11.493494 -5.01455,24.078131 -15.2418,34.184316 -10.77162,10.64411 -42.41944,30.76818 -82.782378,52.63926 -24.793179,13.43445 -29.43277,16.73482 -39.571553,28.1492 -11.638469,13.10275 -17.171436,26.22542 -17.19426,40.78004 -0.02639,16.82679 8.876381,33.58464 24.682391,46.46013 6.038319,4.91878 8.000645,5.63833 6.199757,2.27334 z M 167.67204,215.06183 c 5.04109,-2.28882 7.43272,-5.67179 8.00723,-11.32626 0.31576,-3.10785 -0.12258,-5.11691 -1.64636,-7.54575 C 170.25466,190.16746 169.01442,190 128.18895,190 H 91.313658 l -6.906829,4.8622 c -11.549367,8.13041 -19.122176,17.55329 -16.941955,21.08096 0.444395,0.71905 15.896281,1.04982 48.344146,1.03488 44.64151,-0.0206 47.95775,-0.14309 51.86302,-1.91621 z m -4.95511,-29.73179 c 5.09913,-2.4197 7.48928,-6.72812 6.98456,-12.59017 -0.7231,-8.39827 -5.59368,-11.65901 -17.93468,-12.00686 L 143.5,160.5 122.06132,172.56604 c -11.79128,6.63633 -21.61628,12.59883 -21.83333,13.25 -0.298076,0.89422 6.86928,1.18396 29.28755,1.18396 25.65527,0 30.15964,-0.22656 33.20139,-1.66996 z m 13.24443,-29.81006 c 5.85429,-3.02737 8.68971,-10.05379 6.43165,-15.93819 -0.95011,-2.47595 -2.71046,-1.93508 -10.5696,3.24756 -4.02788,2.65614 -9.91091,6.47555 -13.07341,8.48758 -3.1625,2.01202 -5.75,4.11382 -5.75,4.67065 0,1.67335 19.59281,1.27435 22.96136,-0.4676 z M 78.735504,148.1741 C 96.659996,138.58885 105,133.70285 105,132.78701 c 0,-0.74883 -11.54025,-1.18495 -31.713254,-1.1985 -8.305471,-0.006 -9.460341,0.22595 -11.720979,2.34971 -3.196253,3.00272 -4.938392,8.26198 -4.142363,12.50518 0.695708,3.70844 4.670028,8.5566 7.014351,8.5566 0.84329,0 7.277277,-3.07166 14.297749,-6.8259 z M 120.42419,124.33922 C 134.34062,116.10739 151,104.61949 151,103.25489 c 0,-1.26768 -5.26304,-1.41715 -39.08219,-1.10992 L 72.835626,102.5 l -2.783887,3.11589 c -4.438738,4.96809 -6.541311,11.58902 -5.458912,17.18992 L 65.5,127.5 77,128 c 6.325,0.275 17.315888,0.37246 24.42419,0.21659 12.82521,-0.28125 12.97074,-0.31095 19,-3.87737 z M 163.11269,94 C 167.59114,88.895813 173,79.064504 173,76.028517 173,74.034129 172.47856,74 142.00771,74 h -30.9923 l -9.7577,6.191093 C 85.96203,89.89593 77.598993,96.542139 78.614774,98.185709 c 0.302951,0.490184 18.25522,0.754499 40.546616,0.596975 L 159.16435,98.5 Z M 75.45422,49.117105 c 4.374821,-2.663333 8.124821,-5.354227 8.333333,-5.979764 C 84.04126,42.376219 82.280847,42 78.465686,42 c -5.289017,0 -5.981526,0.280546 -9.583333,3.882353 -3.760496,3.760496 -5.183793,8.138716 -2.632353,8.097411 0.6875,-0.01113 4.829399,-2.199327 9.20422,-4.862659 z"/>
      </g>
    </g>
  </g>

  <g>
    <text x="170" y="150" fill="#233b5a" style="filter: url(#textshadow);">E</text>
    <text x="170" y="150" fill="#e0f3f8" stroke="#000000" stroke-width="1">E</text>
    <text x="300" y="230" fill="#233b5a" style="filter: url(#textshadow);">S</text>
    <text x="300" y="230" fill="#e0f3f8" stroke="#000000" stroke-width="1">S</text>
  </g>

</svg>
